<svg version="1.1" id="Layer_1" xmlns="http://www.w3.org/2000/svg" xmlns:xlink="http://www.w3.org/1999/xlink" x="0px" y="0px"
	 width="100%" viewBox="0 0 512 512" enable-background="new 0 0 512 512" xml:space="preserve">
<path fill="none" opacity="1.000000" stroke="none" 
	d="
M1.000000,195.000000 
	C1.000000,130.364777 1.000000,65.729538 1.000000,1.047155 
	C171.552261,1.047155 342.104523,1.047155 513.000000,1.047155 
	C513.000000,65.353821 513.000000,129.708252 512.744568,194.870087 
	C510.445740,194.447800 508.530243,192.495697 506.337891,192.107635 
	C493.682800,189.867554 480.977448,187.893906 468.259705,186.030472 
	C455.826263,184.208725 443.336334,182.768631 430.910004,180.902786 
	C416.583221,178.751602 402.321045,176.167847 387.990021,174.047699 
	C373.140350,171.850876 358.233032,170.045853 343.373383,167.913132 
	C340.889343,167.556610 338.787994,166.453522 337.716797,163.527740 
	C336.048950,158.972290 333.779999,154.629623 331.658081,150.248932 
	C320.108887,126.405167 308.567810,102.557335 296.943542,78.750153 
	C286.667542,57.704174 276.302307,36.701679 265.936249,15.699843 
	C264.127014,12.034348 261.728790,9.036448 257.076202,8.986044 
	C252.401932,8.935404 249.933578,11.892547 248.144333,15.572001 
	C237.057495,38.371338 226.073944,61.220905 214.984238,84.018837 
	C202.039108,110.631050 189.070892,137.232513 175.922516,163.744308 
	C175.024368,165.555283 172.691589,167.487564 170.761780,167.817383 
	C159.193512,169.794449 147.554993,171.370316 135.926178,172.980621 
	C123.314857,174.726944 110.664650,176.205063 98.074066,178.085800 
	C79.068062,180.924835 60.072506,183.854004 41.123302,187.046371 
	C27.679760,189.311172 13.637409,188.653595 1.000000,195.000000 
z"/>
<path fill="none" opacity="1.000000" stroke="none" 
	d="
M513.000000,206.000000 
	C513.000000,308.294067 513.000000,410.588135 513.000000,512.941101 
	C342.438110,512.941101 171.876190,512.941101 1.000000,512.941101 
	C1.000000,410.977570 1.000000,308.954834 1.246437,206.131683 
	C3.243402,206.968491 5.036398,208.562836 6.738220,210.249207 
	C44.567989,247.734985 82.351051,285.268066 120.283485,322.649628 
	C123.114799,325.439850 123.314034,328.226196 122.741737,331.569489 
	C121.507233,338.781403 120.244202,345.988342 119.000786,353.198730 
	C117.093719,364.257416 115.171684,375.313629 113.295868,386.377625 
	C111.174416,398.890503 109.077568,411.407593 107.006248,423.928864 
	C105.199707,434.849396 103.514305,445.790375 101.646477,456.700256 
	C99.506767,469.198181 97.197273,481.666931 95.020699,494.158630 
	C94.322739,498.164368 95.823410,501.943146 99.246635,503.398590 
	C101.998123,504.568451 106.158318,504.670776 108.819633,503.406830 
	C118.784157,498.674347 128.389008,493.184723 138.130142,487.981689 
	C163.495636,474.433105 188.856934,460.876709 214.229874,447.342102 
	C227.704758,440.154266 241.177032,432.960388 254.726807,425.916046 
	C255.926865,425.292114 257.992401,425.189575 259.151245,425.801178 
	C276.535553,434.976074 293.817810,444.344055 311.160553,453.598206 
	C322.769867,459.792999 334.459778,465.836761 346.072968,472.024414 
	C365.859955,482.567261 385.545227,493.305450 405.472900,503.574066 
	C407.923004,504.836548 411.984253,504.622162 414.607300,503.489960 
	C418.043427,502.006744 419.606293,498.370483 418.986908,494.327209 
	C418.568237,491.594147 418.055878,488.875458 417.583588,486.150635 
	C415.389435,473.492371 413.144714,460.842590 411.015350,448.173431 
	C409.180481,437.256195 407.551758,426.304169 405.695343,415.390747 
	C403.541626,402.729492 401.201599,390.099976 399.011047,377.444855 
	C396.708435,364.142090 394.740753,350.775299 392.130371,337.534302 
	C390.675232,330.153290 391.041748,324.480042 397.377380,318.761688 
	C412.290466,305.301544 426.403809,290.946106 440.673157,276.783997 
	C462.667267,254.955139 484.502441,232.966187 506.466736,211.107117 
	C508.412018,209.171158 510.811462,207.691544 513.000000,206.000000 
z"/>
<path fill="#FFA800" opacity="1.000000" stroke="none" 
	d="
M513.000000,205.541931 
	C510.811462,207.691544 508.412018,209.171158 506.466736,211.107117 
	C484.502441,232.966187 462.667267,254.955139 440.673157,276.783997 
	C426.403809,290.946106 412.290466,305.301544 397.377380,318.761688 
	C391.041748,324.480042 390.675232,330.153290 392.130371,337.534302 
	C394.740753,350.775299 396.708435,364.142090 399.011047,377.444855 
	C401.201599,390.099976 403.541626,402.729492 405.695343,415.390747 
	C407.551758,426.304169 409.180481,437.256195 411.015350,448.173431 
	C413.144714,460.842590 415.389435,473.492371 417.583588,486.150635 
	C418.055878,488.875458 418.568237,491.594147 418.986908,494.327209 
	C419.606293,498.370483 418.043427,502.006744 414.607300,503.489960 
	C411.984253,504.622162 407.923004,504.836548 405.472900,503.574066 
	C385.545227,493.305450 365.859955,482.567261 346.072968,472.024414 
	C334.459778,465.836761 322.769867,459.792999 311.160553,453.598206 
	C293.817810,444.344055 276.535553,434.976074 259.151245,425.801178 
	C257.992401,425.189575 255.926865,425.292114 254.726807,425.916046 
	C241.177032,432.960388 227.704758,440.154266 214.229874,447.342102 
	C188.856934,460.876709 163.495636,474.433105 138.130142,487.981689 
	C128.389008,493.184723 118.784157,498.674347 108.819633,503.406830 
	C106.158318,504.670776 101.998123,504.568451 99.246635,503.398590 
	C95.823410,501.943146 94.322739,498.164368 95.020699,494.158630 
	C97.197273,481.666931 99.506767,469.198181 101.646477,456.700256 
	C103.514305,445.790375 105.199707,434.849396 107.006248,423.928864 
	C109.077568,411.407593 111.174416,398.890503 113.295868,386.377625 
	C115.171684,375.313629 117.093719,364.257416 119.000786,353.198730 
	C120.244202,345.988342 121.507233,338.781403 122.741737,331.569489 
	C123.314034,328.226196 123.114799,325.439850 120.283485,322.649628 
	C82.351051,285.268066 44.567989,247.734985 6.738220,210.249207 
	C5.036398,208.562836 3.243402,206.968491 1.246437,205.665649 
	C1.000000,202.638718 1.000000,199.277420 1.000000,195.458069 
	C13.637409,188.653595 27.679760,189.311172 41.123302,187.046371 
	C60.072506,183.854004 79.068062,180.924835 98.074066,178.085800 
	C110.664650,176.205063 123.314857,174.726944 135.926178,172.980621 
	C147.554993,171.370316 159.193512,169.794449 170.761780,167.817383 
	C172.691589,167.487564 175.024368,165.555283 175.922516,163.744308 
	C189.070892,137.232513 202.039108,110.631050 214.984238,84.018837 
	C226.073944,61.220905 237.057495,38.371338 248.144333,15.572001 
	C249.933578,11.892547 252.401932,8.935404 257.076202,8.986044 
	C261.728790,9.036448 264.127014,12.034348 265.936249,15.699843 
	C276.302307,36.701679 286.667542,57.704174 296.943542,78.750153 
	C308.567810,102.557335 320.108887,126.405167 331.658081,150.248932 
	C333.779999,154.629623 336.048950,158.972290 337.716797,163.527740 
	C338.787994,166.453522 340.889343,167.556610 343.373383,167.913132 
	C358.233032,170.045853 373.140350,171.850876 387.990021,174.047699 
	C402.321045,176.167847 416.583221,178.751602 430.910004,180.902786 
	C443.336334,182.768631 455.826263,184.208725 468.259705,186.030472 
	C480.977448,187.893906 493.682800,189.867554 506.337891,192.107635 
	C508.530243,192.495697 510.445740,194.447800 512.744568,195.338745 
	C513.000000,198.361282 513.000000,201.722580 513.000000,205.541931 
M392.931000,440.199341 
	C388.569305,414.500519 384.207581,388.801666 380.297180,362.555298 
	C379.582520,360.710083 378.867828,358.864868 378.111603,356.230713 
	C378.031616,355.180481 377.951660,354.130280 378.196075,352.703156 
	C377.857208,352.141357 377.518311,351.579559 377.142303,350.193542 
	C377.056335,348.821289 376.970398,347.449066 377.328033,345.515991 
	C376.877075,344.012756 376.426117,342.509552 375.519012,340.380707 
	C374.732300,335.581390 373.945557,330.782043 373.606964,325.828888 
	C373.434296,325.222351 373.261597,324.615845 373.056213,323.243286 
	C373.049164,318.474762 376.536133,316.266083 380.624023,313.931427 
	C384.078339,313.381348 385.869263,311.374359 386.160309,307.241669 
	C396.434967,297.159241 406.709625,287.076843 417.710083,276.952393 
	C421.689270,275.672058 424.511963,273.351898 425.264099,268.378387 
	C426.138611,267.570099 427.013123,266.761810 428.637604,265.935242 
	C432.034027,265.406830 433.787079,263.395905 434.329437,259.416809 
	C439.865692,253.913544 445.401978,248.410278 451.425293,243.266724 
	C452.947845,241.504944 454.470398,239.743149 456.426636,237.505402 
	C458.236450,235.983292 460.046265,234.461166 462.584045,232.909515 
	C463.387390,231.934036 464.190735,230.958542 465.327820,229.446976 
	C466.544067,228.295197 467.760284,227.143402 469.703735,225.951370 
	C473.685181,224.694412 476.466797,222.348190 477.323700,217.370667 
	C480.203644,214.243332 483.083588,211.116013 486.459656,207.851364 
	C486.274902,207.244675 486.090179,206.637985 485.086517,205.993362 
	C482.054993,205.632385 479.023438,205.271393 475.819763,204.260513 
	C474.385681,201.838959 472.834595,201.019958 470.213806,203.819702 
	C465.707184,203.006821 461.215698,202.095322 456.690674,201.402573 
	C448.463837,200.143051 440.217072,199.013519 431.776184,197.302124 
	C430.856354,197.489502 429.936493,197.676880 428.164856,197.920944 
	C419.773987,196.589310 411.383148,195.257675 402.846649,193.460876 
	C402.235046,193.603241 401.623474,193.745621 400.207886,193.891647 
	C395.139740,193.165649 390.062164,192.499725 385.005280,191.702164 
	C370.983002,189.490540 356.909943,187.530350 342.981873,184.827148 
	C337.484894,183.760269 332.318665,180.989258 326.948730,178.332214 
	C326.306152,177.555756 325.663574,176.779297 324.699341,175.379822 
	C302.415344,129.645218 280.131378,83.910614 257.411652,37.281746 
	C254.379868,42.754932 251.565140,47.295544 249.275116,52.086937 
	C244.984985,61.063175 241.218094,70.292313 236.835617,79.220940 
	C229.959305,93.230392 222.692490,107.047653 215.718384,121.009911 
	C213.201431,126.048836 211.214066,131.352142 208.701172,136.393280 
	C203.000015,147.830353 196.492889,158.913422 191.530685,170.654861 
	C188.021347,178.958557 183.806549,184.175476 174.124847,184.969803 
	C163.922882,185.806824 153.878113,188.414276 143.715546,189.915787 
	C132.225266,191.613464 120.669167,192.860168 109.161659,194.447769 
	C88.772331,197.260696 68.385574,200.098419 48.024708,203.108154 
	C41.432724,204.082581 34.925163,205.628098 27.478601,207.089020 
	C33.484730,213.348969 38.434891,218.850327 43.752666,223.969849 
	C51.522415,231.449905 59.731747,238.476349 67.437927,246.018784 
	C80.489952,258.793518 93.295616,271.820007 106.204102,284.741394 
	C115.795128,294.342010 125.328194,304.001526 135.002411,313.517578 
	C139.059830,317.508636 141.345276,322.120697 140.488647,327.786133 
	C138.948944,337.969299 137.123962,348.109344 135.417679,358.267303 
	C132.590027,375.100739 129.891922,391.957245 126.897728,408.761017 
	C123.868889,425.759216 120.414551,442.681885 117.421257,459.686005 
	C116.297768,466.068237 115.946945,472.586517 115.166100,479.756805 
	C117.214279,479.097321 118.196396,478.922058 119.044868,478.486511 
	C129.243103,473.251495 139.477859,468.083679 149.594788,462.694946 
	C183.360321,444.709961 217.084412,426.647125 250.816742,408.599915 
	C254.961700,406.382324 259.038727,406.306732 263.193665,408.583099 
	C273.837067,414.414246 284.475311,420.255768 295.167572,425.996399 
	C326.540070,442.840363 357.927277,459.657013 389.344421,476.417450 
	C392.040466,477.855713 395.000977,478.798309 397.838623,479.971191 
	C398.379150,479.674744 398.919708,479.378296 399.460236,479.081818 
	C397.615662,468.399628 395.771088,457.717438 394.488159,446.652161 
	C396.867371,444.029236 395.723694,442.316193 392.931000,440.199341 
z"/>
<path fill="#FFE100" opacity="1.000000" stroke="none" 
	d="
M485.963562,207.988693 
	C483.083588,211.116013 480.203644,214.243332 476.866669,217.830872 
	C473.931946,220.857941 471.454224,223.424774 468.976532,225.991623 
	C467.760284,227.143402 466.544067,228.295197 464.886627,229.861481 
	C463.582306,231.163681 462.719208,232.051361 461.856079,232.939041 
	C460.046265,234.461166 458.236450,235.983292 455.929871,237.906586 
	C453.934784,239.840866 452.436523,241.373947 450.938263,242.907028 
	C445.401978,248.410278 439.865692,253.913544 433.879669,259.870270 
	C431.582458,262.200317 429.735046,264.076935 427.887634,265.953552 
	C427.013123,266.761810 426.138611,267.570099 424.831970,268.822266 
	C421.928009,271.842255 419.456177,274.418335 416.984314,276.994446 
	C406.709625,287.076843 396.434967,297.159241 385.776245,307.739655 
	C383.551086,310.139923 381.710022,312.042206 379.868958,313.944489 
	C376.536133,316.266083 373.049164,318.474762 373.056335,323.955811 
	C373.090546,325.106445 373.124664,325.544586 373.158813,325.982727 
	C373.945557,330.782043 374.732300,335.581390 375.757660,341.072510 
	C376.292358,343.201782 376.588409,344.639313 376.884460,346.076813 
	C376.970398,347.449066 377.056335,348.821289 377.153320,350.886536 
	C377.400085,352.079712 377.635895,352.579865 377.871704,353.080048 
	C377.951660,354.130280 378.031616,355.180481 378.150574,356.979858 
	C378.741638,359.520264 379.293762,361.311554 379.845886,363.102844 
	C384.207581,388.801666 388.569305,414.500519 392.960083,440.998230 
	C393.301636,443.543182 393.614075,445.289215 393.926514,447.035248 
	C395.771088,457.717438 397.615662,468.399628 399.460236,479.081818 
	C398.919708,479.378296 398.379150,479.674744 397.838623,479.971191 
	C395.000977,478.798309 392.040466,477.855713 389.344421,476.417450 
	C357.927277,459.657013 326.540070,442.840363 295.167572,425.996399 
	C284.475311,420.255768 273.837067,414.414246 263.193665,408.583099 
	C259.038727,406.306732 254.961700,406.382324 250.816742,408.599915 
	C217.084412,426.647125 183.360321,444.709961 149.594788,462.694946 
	C139.477859,468.083679 129.243103,473.251495 119.044868,478.486511 
	C118.196396,478.922058 117.214279,479.097321 115.166100,479.756805 
	C115.946945,472.586517 116.297768,466.068237 117.421257,459.686005 
	C120.414551,442.681885 123.868889,425.759216 126.897728,408.761017 
	C129.891922,391.957245 132.590027,375.100739 135.417679,358.267303 
	C137.123962,348.109344 138.948944,337.969299 140.488647,327.786133 
	C141.345276,322.120697 139.059830,317.508636 135.002411,313.517578 
	C125.328194,304.001526 115.795128,294.342010 106.204102,284.741394 
	C93.295616,271.820007 80.489952,258.793518 67.437927,246.018784 
	C59.731747,238.476349 51.522415,231.449905 43.752666,223.969849 
	C38.434891,218.850327 33.484730,213.348969 27.478601,207.089020 
	C34.925163,205.628098 41.432724,204.082581 48.024708,203.108154 
	C68.385574,200.098419 88.772331,197.260696 109.161659,194.447769 
	C120.669167,192.860168 132.225266,191.613464 143.715546,189.915787 
	C153.878113,188.414276 163.922882,185.806824 174.124847,184.969803 
	C183.806549,184.175476 188.021347,178.958557 191.530685,170.654861 
	C196.492889,158.913422 203.000015,147.830353 208.701172,136.393280 
	C211.214066,131.352142 213.201431,126.048836 215.718384,121.009911 
	C222.692490,107.047653 229.959305,93.230392 236.835617,79.220940 
	C241.218094,70.292313 244.984985,61.063175 249.275116,52.086937 
	C251.565140,47.295544 254.379868,42.754932 257.411652,37.281746 
	C280.131378,83.910614 302.415344,129.645218 324.883423,176.022369 
	C325.712311,177.441360 326.357056,178.217789 327.001831,178.994217 
	C332.318665,180.989258 337.484894,183.760269 342.981873,184.827148 
	C356.909943,187.530350 370.983002,189.490540 385.005280,191.702164 
	C390.062164,192.499725 395.139740,193.165649 400.939087,193.918732 
	C402.110962,193.939224 402.551636,193.932648 402.992279,193.926056 
	C411.383148,195.257675 419.773987,196.589310 428.960449,197.926819 
	C430.496918,197.898361 431.237762,197.864044 431.978638,197.829727 
	C440.217072,199.013519 448.463837,200.143051 456.690674,201.402573 
	C461.215698,202.095322 465.707184,203.006821 470.975403,203.909424 
	C473.155334,204.302887 474.573608,204.606659 475.991913,204.910416 
	C479.023438,205.271393 482.054993,205.632385 485.515717,206.338074 
	C485.951141,207.118073 485.957367,207.553391 485.963562,207.988693 
z"/>
<path fill="#FFA900" opacity="1.000000" stroke="none" 
	d="
M417.347198,276.973419 
	C419.456177,274.418335 421.928009,271.842255 424.678040,269.079681 
	C424.511963,273.351898 421.689270,275.672058 417.347198,276.973419 
z"/>
<path fill="#FFA900" opacity="1.000000" stroke="none" 
	d="
M469.340149,225.971497 
	C471.454224,223.424774 473.931946,220.857941 476.693298,218.115463 
	C476.466797,222.348190 473.685181,224.694412 469.340149,225.971497 
z"/>
<path fill="#FFA900" opacity="1.000000" stroke="none" 
	d="
M394.207336,446.843689 
	C393.614075,445.289215 393.301636,443.543182 393.009247,441.400391 
	C395.723694,442.316193 396.867371,444.029236 394.207336,446.843689 
z"/>
<path fill="#FFA900" opacity="1.000000" stroke="none" 
	d="
M380.246490,313.937958 
	C381.710022,312.042206 383.551086,310.139923 385.666382,308.049438 
	C385.869263,311.374359 384.078339,313.381348 380.246490,313.937958 
z"/>
<path fill="#FFA900" opacity="1.000000" stroke="none" 
	d="
M428.262634,265.944397 
	C429.735046,264.076935 431.582458,262.200317 433.713867,260.158661 
	C433.787079,263.395905 432.034027,265.406830 428.262634,265.944397 
z"/>
<path fill="#FFA900" opacity="1.000000" stroke="none" 
	d="
M451.181763,243.086884 
	C452.436523,241.373947 453.934784,239.840866 455.713013,238.144562 
	C454.470398,239.743149 452.947845,241.504944 451.181763,243.086884 
z"/>
<path fill="#FFA900" opacity="1.000000" stroke="none" 
	d="
M380.071533,362.829071 
	C379.293762,361.311554 378.741638,359.520264 378.171326,357.374329 
	C378.867828,358.864868 379.582520,360.710083 380.071533,362.829071 
z"/>
<path fill="#FFA900" opacity="1.000000" stroke="none" 
	d="
M475.905823,204.585464 
	C474.573608,204.606659 473.155334,204.302887 471.374817,203.954285 
	C472.834595,201.019958 474.385681,201.838959 475.905823,204.585464 
z"/>
<path fill="#FFA900" opacity="1.000000" stroke="none" 
	d="
M377.106262,345.796387 
	C376.588409,344.639313 376.292358,343.201782 375.985718,341.385315 
	C376.426117,342.509552 376.877075,344.012756 377.106262,345.796387 
z"/>
<path fill="#FFA900" opacity="1.000000" stroke="none" 
	d="
M462.220062,232.924286 
	C462.719208,232.051361 463.582306,231.163681 464.719757,230.129532 
	C464.190735,230.958542 463.387390,231.934036 462.220062,232.924286 
z"/>
<path fill="#FFA900" opacity="1.000000" stroke="none" 
	d="
M431.877411,197.565918 
	C431.237762,197.864044 430.496918,197.898361 429.386353,197.898468 
	C429.936493,197.676880 430.856354,197.489502 431.877411,197.565918 
z"/>
<path fill="#FFA900" opacity="1.000000" stroke="none" 
	d="
M326.975281,178.663208 
	C326.357056,178.217789 325.712311,177.441360 325.044250,176.333893 
	C325.663574,176.779297 326.306152,177.555756 326.975281,178.663208 
z"/>
<path fill="#FFA900" opacity="1.000000" stroke="none" 
	d="
M486.211609,207.920029 
	C485.957367,207.553391 485.951141,207.118073 485.925171,206.357040 
	C486.090179,206.637985 486.274902,207.244675 486.211609,207.920029 
z"/>
<path fill="#FFA900" opacity="1.000000" stroke="none" 
	d="
M373.382874,325.905823 
	C373.124664,325.544586 373.090546,325.106445 373.072693,324.338806 
	C373.261597,324.615845 373.434296,325.222351 373.382874,325.905823 
z"/>
<path fill="#FFA900" opacity="1.000000" stroke="none" 
	d="
M378.033875,352.891602 
	C377.635895,352.579865 377.400085,352.079712 377.171875,351.298645 
	C377.518311,351.579559 377.857208,352.141357 378.033875,352.891602 
z"/>
<path fill="#FFA900" opacity="1.000000" stroke="none" 
	d="
M402.919464,193.693481 
	C402.551636,193.932648 402.110962,193.939224 401.341095,193.916901 
	C401.623474,193.745621 402.235046,193.603241 402.919464,193.693481 
z"/>
</svg>