<svg version="1.1" id="Layer_1" xmlns="http://www.w3.org/2000/svg" xmlns:xlink="http://www.w3.org/1999/xlink" x="0px" y="0px"
	 width="100%" viewBox="0 0 512 512" enable-background="new 0 0 512 512" xml:space="preserve" style="background: none;">
<path fill="none" opacity="1.000000" stroke="none" 
	d="
M1.000000,195.000000 
	C1.000000,130.364777 1.000000,65.729538 1.000000,1.047155 
	C171.552261,1.047155 342.104523,1.047155 513.000000,1.047155 
	C513.000000,65.353821 513.000000,129.708252 512.748413,194.869537 
	C509.709229,194.119247 507.079437,191.730942 504.103577,191.166214 
	C496.256195,189.677078 488.237671,189.119507 480.325348,187.936600 
	C465.505737,185.721024 450.727997,183.224304 435.904816,181.034073 
	C421.379547,178.887894 406.801849,177.095566 392.279053,174.933609 
	C374.563721,172.296371 356.881683,169.435593 339.410950,166.706741 
	C332.541901,152.303864 325.831390,138.043777 318.957855,123.862740 
	C306.830963,98.843307 294.593018,73.877739 282.425140,48.878128 
	C276.877472,37.480076 271.720276,25.875654 265.740906,14.710272 
	C262.278412,8.244667 255.133347,6.428464 250.343994,12.304702 
	C248.351273,14.749640 247.113785,17.843885 245.708359,20.728382 
	C234.102921,44.547421 222.543320,68.388786 210.960678,92.218941 
	C199.304108,116.201202 187.647003,140.183228 175.941513,164.141632 
	C175.422043,165.204834 174.554504,166.660492 173.618820,166.861511 
	C169.328705,167.783112 164.963821,168.374573 160.612274,168.988693 
	C152.531342,170.129150 144.427322,171.112076 136.357758,172.325638 
	C124.279968,174.141998 112.235428,176.180466 100.154510,177.974731 
	C89.985184,179.485077 79.770226,180.688187 69.600708,182.197388 
	C57.196339,184.038223 44.797794,185.935806 32.435238,188.035538 
	C21.849007,189.833603 10.682125,189.101074 1.000000,195.000000 
z"/>
<path fill="none" opacity="1.000000" stroke="none" 
	d="
M513.000000,206.000000 
	C513.000000,308.294067 513.000000,410.588135 513.000000,512.941101 
	C342.438110,512.941101 171.876190,512.941101 1.000000,512.941101 
	C1.000000,410.977570 1.000000,308.954834 1.354131,206.470444 
	C2.624257,206.658875 3.651050,207.196609 4.440222,207.975204 
	C32.161125,235.324341 59.878868,262.676758 87.551857,290.074341 
	C98.446480,300.860504 109.122780,311.869904 120.144180,322.523468 
	C123.115021,325.395172 123.333389,328.238861 122.628311,331.851105 
	C121.288452,338.715546 120.151848,345.620972 119.010521,352.522552 
	C116.593208,367.140015 114.267807,381.772766 111.827957,396.386414 
	C109.604416,409.704437 107.277298,423.005188 104.999908,436.314240 
	C102.859314,448.823822 100.729729,461.335327 98.584183,473.844055 
	C97.401680,480.738190 95.888756,487.592743 95.085358,494.530060 
	C94.233879,501.882538 100.408249,506.530640 107.385292,503.928650 
	C110.693329,502.695007 113.717072,500.694458 116.860069,499.023438 
	C146.988373,483.005280 177.120560,466.994385 207.238983,450.957642 
	C221.583405,443.319855 236.050735,435.893311 250.150650,427.826233 
	C255.246109,424.910889 259.229034,425.101624 264.043823,427.929199 
	C271.885315,432.534241 279.974213,436.723358 288.011871,440.987854 
	C300.069885,447.385406 312.219208,453.611786 324.249146,460.061279 
	C351.316437,474.572723 378.386902,489.080231 405.332336,503.815674 
	C411.469940,507.172058 420.218201,501.860901 419.003174,494.814606 
	C418.505219,491.926819 418.072388,489.027802 417.574310,486.140015 
	C415.390106,473.475922 413.145752,460.821991 411.014679,448.148987 
	C409.178467,437.229370 407.536438,426.276947 405.680420,415.360840 
	C403.526886,402.695129 401.202179,390.058594 399.009552,377.399384 
	C396.705017,364.093964 394.758667,350.718201 392.089478,337.487457 
	C390.585693,330.033600 391.339233,324.543579 397.421722,318.726807 
	C423.755371,293.543579 449.482513,267.725372 475.386505,242.093933 
	C486.521667,231.075974 497.527466,219.927261 508.660126,208.906754 
	C509.875183,207.703918 511.542480,206.957916 513.000000,206.000000 
z"/>
<path fill="#FFA800" opacity="1.000000" stroke="none" 
	d="
M513.000000,205.541931 
	C511.542480,206.957916 509.875183,207.703918 508.660126,208.906754 
	C497.527466,219.927261 486.521667,231.075974 475.386505,242.093933 
	C449.482513,267.725372 423.755371,293.543579 397.421722,318.726807 
	C391.339233,324.543579 390.585693,330.033600 392.089478,337.487457 
	C394.758667,350.718201 396.705017,364.093964 399.009552,377.399384 
	C401.202179,390.058594 403.526886,402.695129 405.680420,415.360840 
	C407.536438,426.276947 409.178467,437.229370 411.014679,448.148987 
	C413.145752,460.821991 415.390106,473.475922 417.574310,486.140015 
	C418.072388,489.027802 418.505219,491.926819 419.003174,494.814606 
	C420.218201,501.860901 411.469940,507.172058 405.332336,503.815674 
	C378.386902,489.080231 351.316437,474.572723 324.249146,460.061279 
	C312.219208,453.611786 300.069885,447.385406 288.011871,440.987854 
	C279.974213,436.723358 271.885315,432.534241 264.043823,427.929199 
	C259.229034,425.101624 255.246109,424.910889 250.150650,427.826233 
	C236.050735,435.893311 221.583405,443.319855 207.238983,450.957642 
	C177.120560,466.994385 146.988373,483.005280 116.860069,499.023438 
	C113.717072,500.694458 110.693329,502.695007 107.385292,503.928650 
	C100.408249,506.530640 94.233879,501.882538 95.085358,494.530060 
	C95.888756,487.592743 97.401680,480.738190 98.584183,473.844055 
	C100.729729,461.335327 102.859314,448.823822 104.999908,436.314240 
	C107.277298,423.005188 109.604416,409.704437 111.827957,396.386414 
	C114.267807,381.772766 116.593208,367.140015 119.010521,352.522552 
	C120.151848,345.620972 121.288452,338.715546 122.628311,331.851105 
	C123.333389,328.238861 123.115021,325.395172 120.144180,322.523468 
	C109.122780,311.869904 98.446480,300.860504 87.551857,290.074341 
	C59.878868,262.676758 32.161125,235.324341 4.440222,207.975204 
	C3.651050,207.196609 2.624257,206.658875 1.354131,206.004410 
	C1.000000,202.638718 1.000000,199.277420 1.000000,195.458069 
	C10.682125,189.101074 21.849007,189.833603 32.435238,188.035538 
	C44.797794,185.935806 57.196339,184.038223 69.600708,182.197388 
	C79.770226,180.688187 89.985184,179.485077 100.154510,177.974731 
	C112.235428,176.180466 124.279968,174.141998 136.357758,172.325638 
	C144.427322,171.112076 152.531342,170.129150 160.612274,168.988693 
	C164.963821,168.374573 169.328705,167.783112 173.618820,166.861511 
	C174.554504,166.660492 175.422043,165.204834 175.941513,164.141632 
	C187.647003,140.183228 199.304108,116.201202 210.960678,92.218941 
	C222.543320,68.388786 234.102921,44.547421 245.708359,20.728382 
	C247.113785,17.843885 248.351273,14.749640 250.343994,12.304702 
	C255.133347,6.428464 262.278412,8.244667 265.740906,14.710272 
	C271.720276,25.875654 276.877472,37.480076 282.425140,48.878128 
	C294.593018,73.877739 306.830963,98.843307 318.957855,123.862740 
	C325.831390,138.043777 332.541901,152.303864 339.410950,166.706741 
	C356.881683,169.435593 374.563721,172.296371 392.279053,174.933609 
	C406.801849,177.095566 421.379547,178.887894 435.904816,181.034073 
	C450.727997,183.224304 465.505737,185.721024 480.325348,187.936600 
	C488.237671,189.119507 496.256195,189.677078 504.103577,191.166214 
	C507.079437,191.730942 509.709229,194.119247 512.748413,195.338196 
	C513.000000,198.361282 513.000000,201.722580 513.000000,205.541931 
M86.000000,263.500000 
	C92.135254,269.304626 98.372627,275.005737 104.383720,280.936218 
	C115.651932,292.053314 126.793594,303.298767 137.977783,314.500916 
	C140.733109,317.260712 142.684494,320.337189 142.010635,324.519867 
	C140.560013,333.523895 139.243103,342.549927 137.733963,351.543915 
	C135.553787,364.537079 133.194031,377.500122 131.016876,390.493774 
	C128.568710,405.104919 126.300758,419.746307 123.839134,434.355103 
	C121.397064,448.847748 118.811569,463.316284 116.170700,478.474335 
	C118.163063,477.715271 119.420059,477.390869 120.527946,476.791107 
	C136.961151,467.894104 153.320984,458.860260 169.804794,450.058411 
	C197.325577,435.363251 224.871216,420.711609 252.577377,406.372070 
	C255.006577,405.114807 259.252716,405.231384 261.719910,406.511688 
	C289.265442,420.806152 316.634460,435.441040 344.031738,450.020477 
	C349.623413,452.996063 355.103363,456.181396 360.689911,459.166962 
	C372.543396,465.501740 384.433136,471.768646 396.797668,478.322906 
	C396.797668,475.688477 397.060791,473.567291 396.745544,471.535828 
	C395.973602,466.561493 394.831665,461.645325 394.023041,456.675751 
	C391.904297,443.654144 389.999359,430.596924 387.794006,417.590393 
	C385.320831,403.004333 382.578827,388.464111 380.014679,373.893188 
	C377.703369,360.758789 375.699707,347.565704 373.133270,334.482300 
	C371.290314,325.087158 371.762817,317.313354 379.934143,310.211578 
	C392.701904,299.114899 404.488495,286.874817 416.510071,274.937195 
	C438.501526,253.099472 460.364746,231.132584 482.258789,209.196960 
	C482.984955,208.469421 483.465607,207.496841 484.067078,206.629288 
	C474.014648,205.044281 464.389343,203.412735 454.728210,202.031601 
	C442.122925,200.229568 429.470917,198.750931 416.872528,196.904404 
	C402.046326,194.731354 387.270599,192.213974 372.445587,190.032135 
	C360.012787,188.202393 347.518646,186.784088 335.097107,184.886169 
	C330.363831,184.162949 326.254791,182.254013 323.969727,177.259155 
	C317.485901,163.086227 310.787811,149.008102 303.971252,134.991287 
	C289.389771,105.007660 274.695404,75.078850 259.971527,45.164860 
	C259.359100,43.920635 257.982300,43.052658 256.961639,42.009388 
	C255.962646,43.077934 254.627869,43.982731 254.014954,45.239548 
	C244.611221,64.522720 235.359177,83.879883 225.953537,103.162125 
	C216.824478,121.877396 207.547775,140.520599 198.363495,159.209030 
	C195.855499,164.312347 193.215958,169.368912 191.044479,174.615677 
	C187.443222,183.317093 185.327530,183.672195 176.833298,184.964966 
	C168.762817,186.193253 160.633972,187.035034 152.557159,188.225586 
	C142.407562,189.721680 132.296753,191.481079 122.147034,192.976288 
	C111.975227,194.474731 101.764420,195.708130 91.591736,197.201019 
	C76.600044,199.401077 61.626705,201.726257 46.646145,204.002060 
	C41.110668,204.843018 35.576878,205.695068 29.165499,206.676239 
	C48.338718,225.845825 66.919350,244.422928 86.000000,263.500000 
z"/>
<path fill="none" opacity="1.000000" stroke="none" 
	d="
M85.749985,263.250000 
	C66.919350,244.422928 48.338718,225.845825 29.165499,206.676239 
	C35.576878,205.695068 41.110668,204.843018 46.646145,204.002060 
	C61.626705,201.726257 76.600044,199.401077 91.591736,197.201019 
	C101.764420,195.708130 111.975227,194.474731 122.147034,192.976288 
	C132.296753,191.481079 142.407562,189.721680 152.557159,188.225586 
	C160.633972,187.035034 168.762817,186.193253 176.833298,184.964966 
	C185.327530,183.672195 187.443222,183.317093 191.044479,174.615677 
	C193.215958,169.368912 195.855499,164.312347 198.363495,159.209030 
	C207.547775,140.520599 216.824478,121.877396 225.953537,103.162125 
	C235.359177,83.879883 244.611221,64.522720 254.014954,45.239548 
	C254.627869,43.982731 255.962646,43.077934 256.961639,42.009392 
	C257.982300,43.052658 259.359100,43.920635 259.971527,45.164860 
	C274.695404,75.078850 289.389771,105.007660 303.971252,134.991287 
	C310.787811,149.008102 317.485901,163.086227 323.969727,177.259155 
	C326.254791,182.254013 330.363831,184.162949 335.097107,184.886169 
	C347.518646,186.784088 360.012787,188.202393 372.445587,190.032135 
	C387.270599,192.213974 402.046326,194.731354 416.872528,196.904404 
	C429.470917,198.750931 442.122925,200.229568 454.728210,202.031601 
	C464.389343,203.412735 474.014648,205.044281 484.067078,206.629288 
	C483.465607,207.496841 482.984955,208.469421 482.258789,209.196960 
	C460.364746,231.132584 438.501526,253.099472 416.510071,274.937195 
	C404.488495,286.874817 392.701904,299.114899 379.934143,310.211578 
	C371.762817,317.313354 371.290314,325.087158 373.133270,334.482300 
	C375.699707,347.565704 377.703369,360.758789 380.014679,373.893188 
	C382.578827,388.464111 385.320831,403.004333 387.794006,417.590393 
	C389.999359,430.596924 391.904297,443.654144 394.023041,456.675751 
	C394.831665,461.645325 395.973602,466.561493 396.745544,471.535828 
	C397.060791,473.567291 396.797668,475.688477 396.797668,478.322906 
	C384.433136,471.768646 372.543396,465.501740 360.689911,459.166962 
	C355.103363,456.181396 349.623413,452.996063 344.031738,450.020477 
	C316.634460,435.441040 289.265442,420.806152 261.719910,406.511688 
	C259.252716,405.231384 255.006577,405.114807 252.577377,406.372070 
	C224.871216,420.711609 197.325577,435.363251 169.804794,450.058411 
	C153.320984,458.860260 136.961151,467.894104 120.527946,476.791107 
	C119.420059,477.390869 118.163063,477.715271 116.170700,478.474335 
	C118.811569,463.316284 121.397064,448.847748 123.839134,434.355103 
	C126.300758,419.746307 128.568710,405.104919 131.016876,390.493774 
	C133.194031,377.500122 135.553787,364.537079 137.733963,351.543915 
	C139.243103,342.549927 140.560013,333.523895 142.010635,324.519867 
	C142.684494,320.337189 140.733109,317.260712 137.977783,314.500916 
	C126.793594,303.298767 115.651932,292.053314 104.383720,280.936218 
	C98.372627,275.005737 92.135254,269.304626 85.749985,263.250000 
z"/>
</svg>